<svg id="Layer_1" data-name="Layer 1" xmlns="http://www.w3.org/2000/svg" viewBox="0 0 529.79 103.86"><defs><style>.cls-1{fill:none;stroke:#1d1d1b;stroke-width:2.33px;}.cls-2{fill:#1d1d1b;}.cls-3{fill:#0073a5;}</style></defs><title>Barden Logo_CMYK</title><path class="cls-1" d="M107.06,58.2A50.77,50.77,0,1,1,56.29,7.44,50.78,50.78,0,0,1,107.06,58.2Z" transform="translate(-4.36 -6.27)"/><rect class="cls-2" x="51.38" y="17.62" width="28.19" height="68.31"/><path class="cls-3" d="M100.9,40.9a17,17,0,1,1-17-17,17,17,0,0,1,17,17" transform="translate(-4.36 -6.27)"/><path class="cls-3" d="M101.13,75.06A17.14,17.14,0,1,1,84,57.93a17.14,17.14,0,0,1,17.14,17.13" transform="translate(-4.36 -6.27)"/><path class="cls-2" d="M130.56,23.82h37.53C186.13,23.82,190,34,190,41s-3.36,10.65-8.44,13.44c6.14,2.11,11.9,7,11.9,17.08,0,13.73-11.9,20.83-24,20.83H130.56ZM151.68,50.5h11.13c4.42,0,7.2-1.25,7.2-5.66,0-3.45-2.88-4.7-7.2-4.7H151.68Zm0,25.53h12.38c4.41,0,8.25-1.24,8.25-6.52,0-4-2.4-6.24-7.39-6.24H151.68Z" transform="translate(-4.36 -6.27)"/><path class="cls-2" d="M218.29,23.82h20.63l25,68.53H242l-2.88-9.79H217.33l-3.07,9.79H193Zm16.6,44.06-6.14-21.12h-.19l-6.62,21.12Z" transform="translate(-4.36 -6.27)"/><path class="cls-2" d="M266.18,23.82h40.21c12,0,22.37,6.62,22.37,19.58,0,7.1-3.26,14.59-10.27,17.18,5.76,2.21,9.31,8.54,10.08,17.08.28,3.36.38,11.52,2.3,14.69H309.75A50.06,50.06,0,0,1,308,81.8c-.58-6.53-1.15-13.34-9.5-13.34H287.3V92.35H266.18Zm21.12,30h11c3.94,0,9.31-.67,9.31-6.82,0-4.32-2.4-6.81-10.46-6.81H287.3Z" transform="translate(-4.36 -6.27)"/><path class="cls-2" d="M334.9,23.82h34.65c22.84,0,30.91,16.9,30.91,34.17,0,21-11.14,34.36-35,34.36H334.9Zm21.12,51h8.25c13.15,0,15.07-10.65,15.07-17.08,0-4.32-1.34-16.32-16.61-16.32H356Z" transform="translate(-4.36 -6.27)"/><polygon class="cls-2" points="402.81 17.55 459.54 17.55 459.54 35.12 423.93 35.12 423.93 43.66 456.27 43.66 456.27 59.97 423.93 59.97 423.93 68.52 460.59 68.52 460.59 86.08 402.81 86.08 402.81 17.55"/><polygon class="cls-2" points="509.83 17.55 509.83 54.21 509.64 54.21 489.68 17.55 468.08 17.55 468.08 86.08 488.04 86.08 488.04 48.64 488.23 48.64 509.25 86.08 529.79 86.08 529.79 17.55 509.83 17.55"/></svg>